<svg width="24" height="14" viewBox="0 0 24 14" fill="none" xmlns="http://www.w3.org/2000/svg">
<g clip-path="url(#clip0_19_268)" filter="url(#filter0_ii_19_268)">
<path d="M13.7398 11.1269C14.8912 11.1269 17.1166 11.1269 17.1166 11.1269C17.1166 11.1269 15.7604 13.0202 15.1791 13.8062C15.1182 13.8893 14.9964 13.9834 14.9079 13.9834C12.6769 13.9945 10.446 13.9889 8.15973 13.9889C8.3092 13.7675 8.44205 13.5737 8.57491 13.3855C11.7525 8.99565 14.93 4.60577 18.102 0.21036C18.2127 0.0553578 18.3345 0 18.5283 0C19.5081 0.0110716 20.4824 0.00553578 21.4622 0.00553578C21.5508 0.00553578 21.6394 0.00553578 21.7778 0.00553578C19.0874 3.72558 16.4302 7.40134 13.7398 11.1269Z" fill="#24669E"/>
<path d="M7.07474 4.2515C7.15224 5.4583 7.53974 6.51563 8.28707 7.45671C7.41242 8.66905 6.5433 9.87585 5.64097 11.1214C6.7758 11.1214 7.87189 11.1214 9.02333 11.1214C8.68565 11.5864 8.38118 12.0071 8.07671 12.4278C7.74456 12.8929 7.41795 13.3579 7.0692 13.8118C6.99724 13.9004 6.8533 13.9834 6.73705 13.9834C4.54488 13.9945 0.155005 13.9945 0.155005 13.9945H0.0166012C0.0166012 13.9945 4.73864 7.48439 7.07474 4.2515Z" fill="#24669E"/>
<path d="M17.0004 0.00552896C16.5465 0.631073 16.1313 1.21233 15.7106 1.79359C15.5058 2.07591 15.2843 2.3527 15.0961 2.6461C14.9799 2.82878 14.847 2.87307 14.6422 2.87307C13.8561 2.86199 13.0755 2.86753 12.2895 2.86753C11.4812 2.87307 10.8944 3.43218 10.8834 4.18505C10.8778 4.97113 11.4425 5.53024 12.2729 5.55239C12.4888 5.55792 12.7102 5.55239 12.987 5.55239C12.6327 6.03954 12.3171 6.47686 12.0016 6.90865C11.7193 7.29616 11.4314 7.67813 11.1657 8.0767C11.0661 8.22063 10.983 8.23724 10.828 8.18742C8.26495 7.32937 7.19101 4.11308 8.72995 1.8877C9.59907 0.636608 10.7948 -6.82719e-06 12.3227 0.00552896C13.8616 0.00552896 15.4006 0.00552896 17.0004 0.00552896Z" fill="#24669E"/>
<path d="M16.8786 8.41993C17.172 8.01581 17.4322 7.65045 17.6924 7.28509C18.0688 6.75919 18.4397 6.23329 18.8272 5.71846C18.8937 5.63543 19.0321 5.55793 19.1372 5.55793C21.2519 5.54132 23.0676 7.16884 23.3002 9.2669C23.5493 11.531 22.0878 13.5129 19.8514 13.928C19.6521 13.9668 19.4472 13.9834 19.248 13.9889C18.2626 13.9945 16.2476 13.9889 16.2476 13.9889C16.2476 13.9889 17.5651 12.1178 18.1795 11.2875C18.2404 11.2044 18.3788 11.138 18.4896 11.1269C18.6999 11.1048 18.9103 11.1214 19.1262 11.1214C19.8846 11.1103 20.4603 10.5401 20.4714 9.7928C20.4824 9.02886 19.9123 8.42546 19.1538 8.41439C18.4176 8.40886 17.6813 8.41993 16.8786 8.41993Z" fill="#24669E"/>
</g>
<defs>
<filter id="filter0_ii_19_268" x="-4" y="-4" width="31.3333" height="22" filterUnits="userSpaceOnUse" color-interpolation-filters="sRGB">
<feFlood flood-opacity="0" result="BackgroundImageFix"/>
<feBlend mode="normal" in="SourceGraphic" in2="BackgroundImageFix" result="shape"/>
<feColorMatrix in="SourceAlpha" type="matrix" values="0 0 0 0 0 0 0 0 0 0 0 0 0 0 0 0 0 0 127 0" result="hardAlpha"/>
<feOffset dx="4" dy="4"/>
<feGaussianBlur stdDeviation="4"/>
<feComposite in2="hardAlpha" operator="arithmetic" k2="-1" k3="1"/>
<feColorMatrix type="matrix" values="0 0 0 0 1 0 0 0 0 1 0 0 0 0 1 0 0 0 0.28 0"/>
<feBlend mode="normal" in2="shape" result="effect1_innerShadow_19_268"/>
<feColorMatrix in="SourceAlpha" type="matrix" values="0 0 0 0 0 0 0 0 0 0 0 0 0 0 0 0 0 0 127 0" result="hardAlpha"/>
<feOffset dx="-4" dy="-4"/>
<feGaussianBlur stdDeviation="4"/>
<feComposite in2="hardAlpha" operator="arithmetic" k2="-1" k3="1"/>
<feColorMatrix type="matrix" values="0 0 0 0 0 0 0 0 0 0 0 0 0 0 0 0 0 0 0.28 0"/>
<feBlend mode="normal" in2="effect1_innerShadow_19_268" result="effect2_innerShadow_19_268"/>
</filter>
<clipPath id="clip0_19_268">
<rect width="23.3333" height="14" fill="white"/>
</clipPath>
</defs>
</svg>
