<svg width="441" height="273" viewBox="0 0 441 273" fill="none" xmlns="http://www.w3.org/2000/svg">
<g clip-path="url(#clip0_12_2)" filter="url(#filter0_dii_12_2)">
<path d="M254.49 202.828C253.535 204.151 254.476 206 256.107 206C273.324 206 299.502 206 309.31 206C310.938 206 311.885 207.835 310.936 209.158C304.628 217.95 286.761 242.822 278.2 254.4C277.1 255.9 274.9 257.6 273.3 257.6C234.225 257.794 195.15 257.706 155.163 257.7C153.56 257.7 152.609 255.909 153.511 254.585C155.386 251.832 157.143 249.289 158.9 246.8C216.3 167.5 273.7 88.2 331 8.8C333 6 335.2 5 338.7 5C356.4 5.2 374 5.1 391.7 5.1C392.281 5.1 392.861 5.1 393.485 5.1C395.117 5.1 396.062 6.9501 395.106 8.27262C348.052 73.3351 301.544 137.672 254.49 202.828Z" fill="#24669E"/>
<path d="M128.559 86.2852C129.657 84.7653 132.077 85.4821 132.284 87.3461C134.392 106.361 141.008 123.273 152.766 138.507C153.313 139.216 153.338 140.202 152.814 140.928C138.057 161.384 123.375 181.766 108.199 202.726C107.241 204.048 108.186 205.9 109.819 205.9C127.645 205.9 145.02 205.9 163.076 205.9C164.71 205.9 165.654 207.753 164.695 209.076C159.498 216.238 154.699 222.869 149.9 229.5C143.9 237.9 138 246.3 131.7 254.5C130.4 256.1 127.8 257.6 125.7 257.6C86.1001 257.8 6.80008 257.8 6.80008 257.8C6.80008 257.8 6.80008 257.8 6.80008 257.8V257.8C5.75867 257.8 5.10244 256.694 5.71387 255.851C16.6772 240.735 88.7466 141.361 128.559 86.2852Z" fill="#24669E"/>
<path d="M307.177 5.10001C308.81 5.10001 309.756 6.95279 308.798 8.27612C301.485 18.3803 294.683 27.8902 287.8 37.4C284.1 42.5 280.1 47.5 276.7 52.8C274.6 56.1 272.2 56.9 268.5 56.9C254.3 56.7 240.2 56.8 226 56.8C211.4 56.9 200.8 67 200.6 80.6C200.5 94.8 210.7 104.9 225.7 105.3C228.524 105.372 231.401 105.34 234.672 105.317C236.307 105.305 237.251 107.155 236.291 108.477C230.811 116.023 225.806 122.95 220.8 129.8C215.7 136.8 210.5 143.7 205.7 150.9C203.9 153.5 202.4 153.8 199.6 152.9C153.3 137.4 133.9 79.3 161.7 39.1C177.4 16.5 199 5.00001 226.6 5.10001C253.14 5.10001 279.68 5.10001 307.177 5.10001Z" fill="#EDA837"/>
<path d="M312.824 157.095C311.19 157.099 310.245 155.246 311.202 153.922C315.583 147.858 319.591 142.229 323.6 136.6C330.4 127.1 337.1 117.6 344.1 108.3C345.3 106.8 347.8 105.4 349.7 105.4C387.9 105.1 420.7 134.5 424.9 172.4C429.4 213.3 403 249.1 362.6 256.6C359 257.3 355.3 257.6 351.7 257.7C337.411 257.78 311.134 257.732 301.325 257.709C299.707 257.706 298.777 255.888 299.71 254.566C305.867 245.844 323.352 221.127 332.4 208.9C333.5 207.4 336 206.2 338 206C341.8 205.6 345.6 205.9 349.5 205.9C363.2 205.7 373.6 195.4 373.8 181.9C374 168.1 363.7 157.2 350 157C337.909 156.909 325.817 157.066 312.824 157.095Z" fill="#EDA837"/>
</g>
<defs>
<filter id="filter0_dii_12_2" x="-1" y="0" width="441.5" height="272.9" filterUnits="userSpaceOnUse" color-interpolation-filters="sRGB">
<feFlood flood-opacity="0" result="BackgroundImageFix"/>
<feColorMatrix in="SourceAlpha" type="matrix" values="0 0 0 0 0 0 0 0 0 0 0 0 0 0 0 0 0 0 127 0" result="hardAlpha"/>
<feOffset dx="5" dy="5"/>
<feGaussianBlur stdDeviation="5"/>
<feColorMatrix type="matrix" values="0 0 0 0 0 0 0 0 0 0 0 0 0 0 0 0 0 0 0.23 0"/>
<feBlend mode="normal" in2="BackgroundImageFix" result="effect1_dropShadow_12_2"/>
<feBlend mode="normal" in="SourceGraphic" in2="effect1_dropShadow_12_2" result="shape"/>
<feColorMatrix in="SourceAlpha" type="matrix" values="0 0 0 0 0 0 0 0 0 0 0 0 0 0 0 0 0 0 127 0" result="hardAlpha"/>
<feOffset dx="4" dy="4"/>
<feGaussianBlur stdDeviation="4"/>
<feComposite in2="hardAlpha" operator="arithmetic" k2="-1" k3="1"/>
<feColorMatrix type="matrix" values="0 0 0 0 1 0 0 0 0 1 0 0 0 0 1 0 0 0 0.28 0"/>
<feBlend mode="normal" in2="shape" result="effect2_innerShadow_12_2"/>
<feColorMatrix in="SourceAlpha" type="matrix" values="0 0 0 0 0 0 0 0 0 0 0 0 0 0 0 0 0 0 127 0" result="hardAlpha"/>
<feOffset dx="-4" dy="-4"/>
<feGaussianBlur stdDeviation="4"/>
<feComposite in2="hardAlpha" operator="arithmetic" k2="-1" k3="1"/>
<feColorMatrix type="matrix" values="0 0 0 0 0 0 0 0 0 0 0 0 0 0 0 0 0 0 0.28 0"/>
<feBlend mode="normal" in2="effect2_innerShadow_12_2" result="effect3_innerShadow_12_2"/>
</filter>
<clipPath id="clip0_12_2">
<rect width="421.5" height="252.9" fill="white" transform="translate(4 5)"/>
</clipPath>
</defs>
</svg>
